<svg width="218" height="42" viewBox="0 0 218 42" fill="none" xmlns="http://www.w3.org/2000/svg">
<path d="M19.5898 4.78729C20.7291 2.71298 23.7094 2.71298 24.8487 4.78729L28.1627 10.8209C28.6145 11.6435 29.4252 12.2072 30.3536 12.3444L37.1759 13.3525C39.6644 13.7203 40.6226 16.8033 38.7808 18.5168L34.1816 22.7955C33.4419 23.4836 33.0983 24.4979 33.2673 25.494L34.3162 31.6727C34.7222 34.0642 32.2696 35.9237 30.0765 34.8871L23.5012 31.7792C22.6896 31.3956 21.7488 31.3956 20.9372 31.7792L14.3619 34.8871C12.1689 35.9237 9.71626 34.0642 10.1222 31.6727L11.1711 25.494C11.3402 24.4979 10.9966 23.4836 10.2568 22.7955L5.65768 18.5168C3.8159 16.8033 4.77401 13.7203 7.26254 13.3525L14.0848 12.3444C15.0132 12.2072 15.8239 11.6435 16.2758 10.8209L19.5898 4.78729Z" fill="url('#paint0_linear_24_125')"></path>
<path d="M77.4438 4.78729C78.5831 2.71298 81.5634 2.71298 82.7027 4.78729L86.0167 10.8209C86.4685 11.6435 87.2792 12.2072 88.2076 12.3444L95.0299 13.3525C97.5185 13.7203 98.4766 16.8033 96.6348 18.5168L92.0356 22.7955C91.2959 23.4836 90.9523 24.4979 91.1213 25.494L92.1702 31.6727C92.5762 34.0642 90.1236 35.9237 87.9305 34.8871L81.3552 31.7792C80.5436 31.3956 79.6029 31.3956 78.7912 31.7792L72.2159 34.8871C70.0229 35.9237 67.5703 34.0642 67.9762 31.6727L69.0251 25.494C69.1942 24.4979 68.8506 23.4836 68.1109 22.7955L63.5117 18.5168C61.6699 16.8033 62.628 13.7203 65.1165 13.3525L71.9388 12.3444C72.8672 12.2072 73.6779 11.6435 74.1298 10.8209L77.4438 4.78729Z" fill="url('#paint1_linear_24_125')"></path>
<path d="M135.297 4.78729C136.437 2.71298 139.417 2.71298 140.556 4.78729L143.87 10.8209C144.322 11.6435 145.133 12.2072 146.061 12.3444L152.883 13.3525C155.372 13.7203 156.33 16.8033 154.488 18.5168L149.889 22.7955C149.149 23.4836 148.806 24.4979 148.975 25.494L150.024 31.6727C150.43 34.0642 147.977 35.9237 145.784 34.8871L139.209 31.7792C138.397 31.3956 137.456 31.3956 136.645 31.7792L130.069 34.8871C127.876 35.9237 125.424 34.0642 125.83 31.6727L126.879 25.494C127.048 24.4979 126.704 23.4836 125.964 22.7955L121.365 18.5168C119.523 16.8033 120.482 13.7203 122.97 13.3525L129.792 12.3444C130.721 12.2072 131.531 11.6435 131.983 10.8209L135.297 4.78729Z" fill="url('#paint2_linear_24_125')"></path>
<path d="M193.151 4.78729C194.291 2.71298 197.271 2.71298 198.41 4.78729L201.724 10.8209C202.176 11.6435 202.987 12.2072 203.915 12.3444L210.737 13.3525C213.226 13.7203 214.184 16.8033 212.342 18.5168L207.743 22.7955C207.003 23.4836 206.66 24.4979 206.829 25.494L207.878 31.6727C208.284 34.0642 205.831 35.9237 203.638 34.8871L197.063 31.7792C196.251 31.3956 195.31 31.3956 194.499 31.7792L187.923 34.8871C185.73 35.9237 183.278 34.0642 183.684 31.6727L184.733 25.494C184.902 24.4979 184.558 23.4836 183.818 22.7955L179.219 18.5168C177.377 16.8033 178.336 13.7203 180.824 13.3525L187.646 12.3444C188.575 12.2072 189.385 11.6435 189.837 10.8209L193.151 4.78729Z" fill="url('#paint3_linear_24_125')"></path>
<defs>
<linearGradient id="paint0_linear_24_125" x1="11.4927" y1="8.15329" x2="45.2228" y2="42.3446" gradientUnits="userSpaceOnUse">
<stop stop-color="#FBBC00"></stop>
<stop offset="1" stop-color="#FD7400"></stop>
</linearGradient>
<linearGradient id="paint1_linear_24_125" x1="69.3467" y1="8.15329" x2="103.077" y2="42.3446" gradientUnits="userSpaceOnUse">
<stop stop-color="#FBBC00"></stop>
<stop offset="1" stop-color="#FD7400"></stop>
</linearGradient>
<linearGradient id="paint2_linear_24_125" x1="127.2" y1="8.15329" x2="160.93" y2="42.3446" gradientUnits="userSpaceOnUse">
<stop stop-color="#FBBC00"></stop>
<stop offset="1" stop-color="#FD7400"></stop>
</linearGradient>
<linearGradient id="paint3_linear_24_125" x1="185.054" y1="8.15329" x2="218.784" y2="42.3446" gradientUnits="userSpaceOnUse">
<stop stop-color="#FBBC00"></stop>
<stop offset="1" stop-color="#FD7400"></stop>
</linearGradient>
</defs>
</svg>
